<svg id="Group_47721" data-name="Group 47721" xmlns="http://www.w3.org/2000/svg" xmlns:xlink="http://www.w3.org/1999/xlink" width="18" height="18" viewBox="0 0 18 18">
  <defs>
    <clipPath id="clip-path">
      <rect id="Rectangle_8222" data-name="Rectangle 8222" width="18" height="18" fill="#6f7d7d"/>
    </clipPath>
  </defs>
  <g id="Group_47720" data-name="Group 47720" clip-path="url(#clip-path)">
    <path id="Path_35244" data-name="Path 35244" d="M3.332,17.2a1.125,1.125,0,0,1-.8-1.921L15.88,1.933a1.125,1.125,0,0,1,1.592,1.592L4.128,16.868a1.121,1.121,0,0,1-.8.329" transform="translate(-0.552 -0.401)" fill="#6f7d7d"/>
    <path id="Path_35245" data-name="Path 35245" d="M16.675,17.2a1.121,1.121,0,0,1-.8-.329L2.536,3.525A1.125,1.125,0,0,1,4.128,1.933L17.471,15.277a1.125,1.125,0,0,1-.8,1.921" transform="translate(-0.552 -0.401)" fill="#6f7d7d"/>
  </g>
</svg>
